<svg xmlns="http://www.w3.org/2000/svg" width="605.97" height="341.39" viewBox="0 0 605.97 341.39"><title>logo</title><path d="M471.15,487.7l-139.48,20-86.54,12.42c-7.29,1-15.29,3.27-22.66,3.25-5.93,0-11-9-16.77-9.14-14.75-.36-27.55,2.78-40.94-8.15-9.8-8-16.71-7.4-28.13-13-8.86-4.38-12.52-5.32-15.87-15.09-2.66-7.74-3.8-16-6.18-23.86-4.12-13.58-13-18.8-22.79-10.86-6.61,5.36-22.17,20.05-31.33,19.68-14.06-.57-5.37-17.21-1.34-24.26,6.89-12,11.56-23.65,18.82-35.45,5.31-8.62,10.19-20.77,17.54-27.9,4.22-4.1,9.34-2,12.57-4.44,1.21-.93,2.46-5.78,3-7,3.39-7.38,7.32-17.09,13.69-22.44,14.53-12.21,20.64,17.4,31.54,21.6,11.32,4.36,28.55,2.89,40.57,4.11,12.71,1.29,30.41,5.57,43.12,6.86-13.43-38.53-26-88.07-14.36-127.81,9-30.77,32-52.06,63.15-59.47,33.09-7.87,65.88,3.24,93.59,21.35,51.72,33.79,90.92,87.56,121.79,140.24,2.25,3.83,6.74,9.16,7.66,13.59,1.06,5.08-2,5.57,2.74,10.26,4,4,12.08,6.65,17,9.34,7.15,3.93,13.15,7.4,20.8,9.51,11.45,3.16,22.88,7.2,31.28,16.05,13.72,14.43,11.84,37.85,1.34,53.72-9.06,13.71-25,19.47-40.77,20.45-5.94.37-11.85-.91-17.7-.67-5.18.21-5.69,1.35-11.25,2.7-7.85,1.9-15.15-2.76-22.52-4.24C481.08,476.68,480.78,486.31,471.15,487.7Z" transform="translate(-49.75 -182)" style="fill:#5b5959"/><path d="M594,433c0,29.82-26.64,54-59.5,54a311.11,311.11,0,0,1-46.12-3.59,10.88,10.88,0,0,1-3.93-20.09C493.2,458.09,507.39,446,535.5,396,535.5,396,590,384,594,433Z" transform="translate(-49.75 -182)" style="fill:#a8a3a3"/><path d="M204,516l-33.44,1.86A18.05,18.05,0,0,1,158.38,514l-25.2-19.95A4.51,4.51,0,0,1,136,486l28.62,9.33a4.74,4.74,0,0,0,3.92-.47L183,486c-15.4,4.2-19-1.32-19.76-5a2.63,2.63,0,0,1,2.25-3.13l20.94-2.7L208,474C193,504,204,516,204,516Z" transform="translate(-49.75 -182)" style="fill:#a8a3a3"/><path d="M111.62,437.08a5.51,5.51,0,0,1-4.42,5.69c-32.64,6.93-47.57,44.35-55.27,25.87-3.11-4-2.59-9.49-.33-14.05,0,0,16.5-59.7,38.62-82.17a7.45,7.45,0,0,1,8.08-1.7l5.15,2.06c3,1.2,17.45,19.33,15.13,22.08C110.67,404.22,111,427,111.62,437.08Z" transform="translate(-49.75 -182)" style="fill:#a8a3a3"/><path d="M261.41,448.52,123.88,492s-34.38-49.55-10.11-99.1c3.86-7.88,26.15,10.72,35.39-2,5.66-7.79-2.39-13.47,6.07-25.28,7.91-11,85.62,15.52,79.89,0-49.93-135,23.36-173.38,53.11-183.08a10.4,10.4,0,0,1,13.51,8.2C310.34,243.29,341.56,462.77,261.41,448.52Z" transform="translate(-49.75 -182)" style="fill:#bab5b5"/><polygon points="208.98 227.46 86.25 213 97.33 205.07 203.56 221.96 208.98 227.46" style="fill:#5b5959"/><path d="M560.27,371.18l23.15-33.85v-.19H562.25v-4.52h28.16v3.28l-23,33.73v.19h23.33v4.52H560.27Z" transform="translate(-49.75 -182)" style="fill:#a8a3a3"/><path d="M602.27,320.18l23.15-33.85v-.19H604.25v-4.52h28.16v3.28l-23,33.73v.19h23.33v4.52H602.27Z" transform="translate(-49.75 -182)" style="fill:#a8a3a3"/><path d="M625.27,261.18l23.15-33.85v-.19H627.25v-4.52h28.16v3.28l-23,33.73v.19h23.33v4.52H625.27Z" transform="translate(-49.75 -182)" style="fill:#a8a3a3"/></svg>